<svg xmlns="http://www.w3.org/2000/svg" viewBox="0 0 128 128">
  <rect width="128" height="128" rx="24" fill="#ffe7f3"/>
  <g transform="translate(64,64)">
    <circle r="18" fill="#fff0f8"/>
    <path d="M0,-38 C16,-38 26,-28 30,-12 C40,-8 44,8 34,18 C46,30 42,48 28,46 C18,58 0,52 -8,44 C-20,52 -38,50 -44,34 C-56,30 -52,14 -38,8 C-38,-8 -34,-28 0,-38Z" fill="#ff85c0"/>
    <path d="M24,-22 C34,-26 44,-16 44,-4 C54,2 52,16 42,20 C44,30 38,42 24,44 C14,54 0,52 -6,44 C-18,50 -34,46 -38,32 C-52,28 -52,14 -42,6 C-42,-6 -34,-20 24,-22Z" fill="#ffb1d3" opacity=".9"/>
  </g>
</svg>
